<?xml version="1.0" encoding="UTF-8"?><svg id="Calque_1" xmlns="http://www.w3.org/2000/svg" viewBox="0 0 1500 1500"><circle cx="750" cy="750" r="750" fill="#fe0002"/><circle cx="750" cy="750" r="662.5" fill="#fff"/><circle cx="750" cy="750" r="580" fill="#0000fe"/><path d="M742.266,1343l-.176-.957c.178.002.355.009.533.011l-17.918-98.782-1.746-1.281c-61.726-8.111-120.968-42.848-167.27-84.141-55.925-49.875-116.696-141.439-113.633-220.412.048-1.239-.752-3.805.988-3.564,8.559,29.129,21.632,65.022,49.933,78.761l-19.713-41.686c-15.479-42.964-15.903-85.267-2.516-128.915,4.811-15.685,12.057-31.806,21.226-45.251-11.298,38.82-8.362,84.717,21.968,113.555-5.404-15.667-4.834-31.22-.485-47.054,20.424-74.359,116.129-96.263,105.214-186.575-2.985-24.702-11.413-47.324-29.828-64.06,26.458,6.597,44.541,25.118,55.777,49.751l12.113,33.099c-1.887-18.73-2.659-36.902.145-55.611,4.81-32.096,23.299-56.973,35.989-85.892,32.617-74.335,34.972-145.431,1.997-220.311l-24.132-46.367c54.507,28.165,97.604,79.039,130.216,131.033,16.811,26.802,33.664,57.648,44.267,87.641,3.792,10.726,7.946,22.579,8.251,34.008l1.977-8.701c1.634-25.011-2.21-41.957-9.162-65.273-.302-1.014-1.696-3.058-.319-3.766,38.961,48.21,64.361,108.192,76.102,169.604,8.872,46.408,11.174,93.732,1.607,140.18-5.981,29.034-16.809,56.568-27.268,84.074,33.793-47.363,57.242-104.165,58.405-163.694,37.96,66.126,67.304,142.982,57.3,221.376-7.027,55.069-41.879,118.589-80.746,156.706-.846.83-1.834,1.361-3.008,1.49l.506,2.042c21.856-6.239,43.433-25.495,57.383-43.514,4.673-6.036,8.306-12.901,12.991-18.906-14.426,106.961-106.943,187.62-202.214,220.954-5.559,23.037-8.989,46.566-13.455,69.852-.338.017-.675.041-1.013.057l-7.977,38.545-32.31,1.973Z" fill="#fff"/><path d="M829.133,828.593c-15.339,56.621,21.101,102.074,45.529,148.442,34.639,65.749,20.397,109.245-24.078,164.443-13.566,16.836-32.604,31.552-44.931,47.48-16.739,21.629-23.591,89.884-29.989,119.255-4.035,18.523-8,40.457-19.62,55.457-1.492-.895-1.235-2.183-1.606-3.515-14.295-51.304-10.924-111.059-37.954-158.649-45.401-79.935-136.516-108.13-124.383-217.599,11.836-106.795,89.727-197.509,140.094-287.623,27.952-50.011,43.803-107.058,31.528-164.624,4.84,5.453,9.043,12.444,12.434,18.896,32.292,61.444,23.218,131.042,11.772,196.779-8.321,47.786-29.888,106.98-2.565,151.699,1.673,2.738,9.23,12.809,11.517,14.153,4.398,2.585,8.092.055,8.416-4.826.545-8.205-1.345-18.839-.73-27.742,1.28-18.513,9.385-40.888,24.566-52.026Z" fill="#fe0002"/></svg>